<svg width="1200" height="630" viewBox="0 0 1200 630" fill="none" xmlns="http://www.w3.org/2000/svg">
  <defs>
    <linearGradient id="bg" x1="0" y1="0" x2="1200" y2="630" gradientUnits="userSpaceOnUse">
      <stop offset="0%" stop-color="#fff4c9" />
      <stop offset="45%" stop-color="#f7fbff" />
      <stop offset="100%" stop-color="#e8f6ff" />
    </linearGradient>
    <radialGradient id="glow1" cx="0" cy="0" r="1" gradientUnits="userSpaceOnUse" gradientTransform="translate(180 120) rotate(35) scale(420 320)">
      <stop offset="0%" stop-color="#22c9c3" stop-opacity="0.35" />
      <stop offset="100%" stop-color="#22c9c3" stop-opacity="0" />
    </radialGradient>
    <radialGradient id="glow2" cx="0" cy="0" r="1" gradientUnits="userSpaceOnUse" gradientTransform="translate(1020 60) rotate(120) scale(420 320)">
      <stop offset="0%" stop-color="#f2c313" stop-opacity="0.4" />
      <stop offset="100%" stop-color="#f2c313" stop-opacity="0" />
    </radialGradient>
    <linearGradient id="title" x1="380" y1="160" x2="860" y2="360" gradientUnits="userSpaceOnUse">
      <stop offset="0%" stop-color="#2b63d9" />
      <stop offset="45%" stop-color="#22c9c3" />
      <stop offset="100%" stop-color="#1b2a85" />
    </linearGradient>
  </defs>

  <rect width="1200" height="630" fill="url(#bg)" />
  <rect width="1200" height="630" fill="url(#glow1)" />
  <rect width="1200" height="630" fill="url(#glow2)" />

  <path d="M-20 560C120 520 220 500 360 520C520 545 680 610 820 580C970 545 1040 455 1225 430" stroke="#2b63d9" stroke-opacity="0.25" stroke-width="8" />
  <path d="M-40 520C100 470 210 450 360 480C530 515 670 580 820 550C980 515 1040 420 1220 400" stroke="#22c9c3" stroke-opacity="0.22" stroke-width="6" />

  <rect x="88" y="84" width="160" height="44" rx="22" fill="#0c1426" fill-opacity="0.84" />
  <text x="112" y="114" font-family="Helvetica Neue, Arial, sans-serif" font-size="22" font-weight="600" fill="#ffffff">Flowra v1.0.3</text>

  <text x="88" y="230" font-family="Helvetica Neue, Arial, sans-serif" font-size="96" font-weight="700" fill="url(#title)">Flowra</text>
  <text x="88" y="290" font-family="Helvetica Neue, Arial, sans-serif" font-size="30" font-weight="500" fill="#1b2a85">Modular Node.js framework + CLI</text>

  <text x="88" y="340" font-family="Helvetica Neue, Arial, sans-serif" font-size="24" font-weight="400" fill="#27304b">Ship consistent services with Express-compatible modules,</text>
  <text x="88" y="374" font-family="Helvetica Neue, Arial, sans-serif" font-size="24" font-weight="400" fill="#27304b">a dependency-injected container, and a productive CLI.</text>

  <rect x="88" y="430" width="430" height="60" rx="30" fill="#2b63d9" />
  <text x="124" y="468" font-family="Helvetica Neue, Arial, sans-serif" font-size="22" font-weight="600" fill="#ffffff">Docs + CLI + Examples</text>

  <text x="88" y="540" font-family="Menlo, Monaco, monospace" font-size="20" font-weight="500" fill="#1b2a85">flowra.id/docs</text>

  <circle cx="980" cy="380" r="120" fill="#f2c313" fill-opacity="0.18" />
  <circle cx="1035" cy="350" r="80" fill="#22c9c3" fill-opacity="0.2" />
</svg>
